HIERARCHY
ROOT Pelvis
{
	OFFSET 0.000000 0.000000 0.000000
	CHANNELS 6 Xposition Yposition Zposition Xrotation Yrotation Zrotation
	JOINT LeftUpLeg_virtual
	{
		OFFSET 0.000000 0.000000 0.000000
		CHANNELS 3 Xrotation Yrotation Zrotation
		JOINT LeftUpLeg
		{
			OFFSET 18.735201 -5.666702 -4.541200
			CHANNELS 3 Xrotation Yrotation Zrotation
			JOINT LeftLeg
			{
				OFFSET -0.021200 -31.938179 0.493100
				CHANNELS 3 Xrotation Yrotation Zrotation
				JOINT LeftFoot
				{
					OFFSET 0.021200 -31.938179 -4.336299
					CHANNELS 3 Xrotation Yrotation Zrotation
					JOINT LeftToeBase
					{
						OFFSET 0.943001 -26.722000 15.023500
						CHANNELS 3 Xrotation Yrotation Zrotation
						End Site
						{
							OFFSET 0 0 0
						}
					}
				}
			}
		}
	}
	JOINT RightUpLeg_virtual
	{
		OFFSET 0.000000 0.000000 0.000000
		CHANNELS 3 Xrotation Yrotation Zrotation
		JOINT RightUpLeg
		{
			OFFSET -18.735201 -5.666702 -4.541200
			CHANNELS 3 Xrotation Yrotation Zrotation
			JOINT RightLeg
			{
				OFFSET 0.018946 -31.938133 0.493100
				CHANNELS 3 Xrotation Yrotation Zrotation
				JOINT RightFoot
				{
					OFFSET -0.018946 -31.938126 -4.336299
					CHANNELS 3 Xrotation Yrotation Zrotation
					JOINT RightToeBase
					{
						OFFSET -0.943001 -26.722004 15.023500
						CHANNELS 3 Xrotation Yrotation Zrotation
						End Site
						{
							OFFSET 0 0 0
						}
					}
				}
			}
		}
	}
	JOINT Hips_virtual
	{
		OFFSET 0.000000 0.000000 0.000000
		CHANNELS 3 Xrotation Yrotation Zrotation
		JOINT Hips
		{
			OFFSET -0.000000 -0.000000 -0.000000
			CHANNELS 3 Xrotation Yrotation Zrotation
			JOINT Spine
			{
				OFFSET 0.000000 10.199997 -0.299500
				CHANNELS 3 Xrotation Yrotation Zrotation
				JOINT Spine1
				{
					OFFSET 0.000000 11.900002 -1.516600
					CHANNELS 3 Xrotation Yrotation Zrotation
					JOINT Spine2
					{
						OFFSET 0.000000 13.600006 -2.842500
						CHANNELS 3 Xrotation Yrotation Zrotation
						JOINT Neck_virtual
						{
							OFFSET 0.000000 0.000000 0.000000
							CHANNELS 3 Xrotation Yrotation Zrotation
							JOINT Neck
							{
								OFFSET 0.000000 9.624100 -2.890100
								CHANNELS 3 Xrotation Yrotation Zrotation
								JOINT Head
								{
									OFFSET 0.000000 14.068802 -1.351900
									CHANNELS 3 Xrotation Yrotation Zrotation
									End Site
									{
										OFFSET 0 0 0
									}
								}
							}
						}
						JOINT LeftShoulder_virtual
						{
							OFFSET 0.000000 0.000000 0.000000
							CHANNELS 3 Xrotation Yrotation Zrotation
							JOINT LeftShoulder
							{
								OFFSET 15.263000 10.923401 -0.547700
								CHANNELS 3 Xrotation Yrotation Zrotation
								JOINT LeftArm
								{
									OFFSET 25.438599 -2.830597 -13.032500
									CHANNELS 3 Xrotation Yrotation Zrotation
									JOINT LeftForeArm
									{
										OFFSET 29.960503 0.000000 0.000000
										CHANNELS 3 Xrotation Yrotation Zrotation
										JOINT LeftHand
										{
											OFFSET 27.849251 0.000000 0.000000
											CHANNELS 3 Xrotation Yrotation Zrotation
											End Site
											{
												OFFSET 0 0 0
											}
										}
									}
								}
							}
						}
						JOINT RightShoulder_virtual
						{
							OFFSET 0.000000 0.000000 0.000000
							CHANNELS 3 Xrotation Yrotation Zrotation
							JOINT RightShoulder
							{
								OFFSET -15.263000 10.923401 -0.547700
								CHANNELS 3 Xrotation Yrotation Zrotation
								JOINT RightArm
								{
									OFFSET -25.438599 -2.830597 -13.032500
									CHANNELS 3 Xrotation Yrotation Zrotation
									JOINT RightForeArm
									{
										OFFSET -29.960503 0.000000 0.000000
										CHANNELS 3 Xrotation Yrotation Zrotation
										JOINT RightHand
										{
											OFFSET -27.849251 0.000000 0.000000
											CHANNELS 3 Xrotation Yrotation Zrotation
											End Site
											{
												OFFSET 0 0 0
											}
										}
									}
								}
							}
						}
					}
				}
			}
		}
	}
}
MOTION
Frames: 6
Frame Time: 0.03333333
-7.853375 72.279121 13.166855 0.000000 0.000000 0.000000 29.229125 -63.488131 24.081106 -71.952723 0.132055 37.476947 86.561275 -19.305890 -5.039354 -26.235766 -0.559077 -6.604990 0.000000 0.000000 0.000000 28.839784 -62.941935 24.181204 -59.369794 -4.088739 -32.149041 92.845521 -2.512905 14.503048 -51.808470 13.679429 -1.228918 0.000000 0.000000 0.000000 30.254231 -62.762082 25.019415 -0.877558 -0.025760 -0.043961 13.446044 -0.512103 -4.116198 1.287455 -2.929041 -2.469018 0.000000 0.000000 0.000000 -1.666095 -2.344127 -2.398134 0.457177 1.657047 -1.319842 0.000000 0.000000 0.000000 -0.114542 -3.071512 -2.587669 2.842496 -13.355801 -8.593096 -45.855448 1.065101 -22.411985 24.894479 -40.276929 18.620936 0.000000 0.000000 0.000000 -2.547469 -1.821543 -2.354754 14.751388 21.012886 13.679326 -18.317924 -6.379423 47.208171 16.962910 36.658978 -11.346793 0.000000 0.000000 0.000000 
-7.256485 69.651901 12.312244 0.000000 0.000000 0.000000 31.377083 -63.474717 26.105155 -76.541695 -2.461422 38.551391 92.940447 -21.176279 -5.189483 -27.420225 -3.074875 -5.781803 0.000000 0.000000 0.000000 30.801790 -62.856851 25.950520 -64.893887 -2.177842 -33.817199 98.674083 0.034866 15.054099 -51.720214 15.927303 -1.828999 0.000000 0.000000 0.000000 32.125986 -62.740936 26.774154 -0.889749 -0.027879 -0.038026 13.057240 -0.408899 -3.850246 1.430234 -2.980757 -2.412864 0.000000 0.000000 0.000000 -1.368345 -2.462200 -2.295135 0.971040 2.149190 -1.559307 0.000000 0.000000 0.000000 -0.059663 -3.212607 -2.651718 3.250495 -13.231666 -7.987198 -47.332750 -0.346060 -23.236724 25.732345 -39.202701 18.729270 0.000000 0.000000 0.000000 -2.607822 -1.967113 -2.323025 15.679186 21.430210 13.055293 -19.646774 -4.922443 46.966099 18.612738 36.057535 -12.575953 0.000000 0.000000 0.000000 
-6.550066 66.840683 11.623524 0.000000 0.000000 0.000000 33.261403 -63.646626 27.979026 -81.222041 -5.301332 39.545668 99.613576 -22.783302 -5.143456 -28.141228 -5.526678 -4.844678 0.000000 0.000000 0.000000 32.430599 -62.880053 27.496614 -70.480633 0.560870 -35.295658 104.489743 2.443339 15.350558 -51.099381 17.644645 -1.926051 0.000000 0.000000 0.000000 33.740148 -62.903966 28.422427 -0.901173 -0.014541 -0.026097 12.673685 -0.236430 -3.641929 1.586922 -3.024897 -2.342124 0.000000 0.000000 0.000000 -1.029492 -2.538971 -2.188318 1.530969 2.697764 -1.791996 0.000000 0.000000 0.000000 0.058440 -3.313142 -2.702222 3.653420 -12.903435 -7.359473 -48.753480 -1.442371 -24.422663 26.536149 -38.091856 18.842219 0.000000 0.000000 0.000000 -2.621390 -2.074029 -2.292614 16.604531 21.569089 12.376032 -20.583537 -3.710659 46.576474 20.153867 35.076553 -13.590843 0.000000 0.000000 0.000000 
-5.804482 63.943542 11.201115 0.000000 0.000000 0.000000 34.783899 -63.910886 29.576843 -85.867431 -8.301560 40.370721 106.139412 -23.967918 -4.999520 -28.232572 -7.690676 -3.769681 0.000000 0.000000 0.000000 33.815826 -62.968334 28.852082 -76.034513 3.882840 -36.585136 109.967343 4.607778 15.550392 -49.981791 18.801231 -1.527843 0.000000 0.000000 0.000000 35.115311 -63.156451 29.932676 -0.908767 0.013494 -0.015563 12.308548 -0.008152 -3.455720 1.761820 -3.055892 -2.280973 0.000000 0.000000 0.000000 -0.714547 -2.568293 -2.116261 2.091268 3.296199 -2.004605 0.000000 0.000000 0.000000 0.267311 -3.354321 -2.726206 4.031987 -12.396686 -6.791753 -50.062216 -2.228134 -25.911016 27.240207 -36.863088 18.903144 0.000000 0.000000 0.000000 -2.612671 -2.134025 -2.272428 17.488858 21.462980 11.824330 -21.162603 -2.845694 46.025506 21.580770 33.917767 -14.398186 0.000000 0.000000 0.000000 
-5.096206 61.131153 10.816677 0.000000 0.000000 0.000000 35.773430 -64.103388 30.706075 -90.148853 -11.373368 40.889641 111.865310 -24.725913 -4.866022 -27.828943 -9.480408 -2.747790 0.000000 0.000000 0.000000 34.827073 -63.058567 29.871590 -81.351077 7.612636 -37.703874 114.993338 6.525780 15.702982 -48.272335 19.517464 -0.799003 0.000000 0.000000 0.000000 36.110961 -63.351254 31.109500 -0.903043 0.042215 -0.004866 11.957304 0.231306 -3.240632 1.964340 -3.076084 -2.235102 0.000000 0.000000 0.000000 -0.446693 -2.547976 -2.101626 2.597684 3.935351 -2.185673 0.000000 0.000000 0.000000 0.543964 -3.324714 -2.695298 4.372443 -11.725268 -6.365297 -51.195389 -2.760997 -27.578682 27.890500 -35.593960 18.935390 0.000000 0.000000 0.000000 -2.609654 -2.131952 -2.268544 18.288342 21.161186 11.541277 -21.521824 -2.301914 45.317182 22.889784 32.710869 -15.014554 0.000000 0.000000 0.000000 
-4.474474 58.532967 10.595436 0.000000 0.000000 0.000000 36.324124 -64.165044 31.437619 -93.852004 -14.345054 41.024114 116.447581 -25.150903 -4.870645 -27.006001 -10.841489 -2.002605 0.000000 0.000000 0.000000 35.515157 -63.108967 30.596529 -86.211631 11.587138 -38.622138 119.601366 8.262445 15.734596 -45.851979 19.949323 0.256741 0.000000 0.000000 0.000000 36.685421 -63.414318 31.879064 -0.889538 0.070522 -0.005875 11.628614 0.436802 -2.972124 2.226456 -3.089063 -2.205102 0.000000 0.000000 0.000000 -0.225347 -2.482367 -2.132598 3.019124 4.602461 -2.341069 0.000000 0.000000 0.000000 0.894377 -3.231966 -2.585782 4.656247 -10.950971 -6.141863 -52.116440 -3.082123 -29.297205 28.618667 -34.516948 19.055033 0.000000 0.000000 0.000000 -2.626435 -2.093134 -2.267226 18.992205 20.792508 11.562698 -21.749639 -1.935732 44.338757 24.087405 31.517000 -15.445906 0.000000 0.000000 0.000000 
